<?xml version="1.0" standalone="no"?>
<!DOCTYPE svg PUBLIC "-//W3C//DTD SVG 20010904//EN"
 "http://www.w3.org/TR/2001/REC-SVG-20010904/DTD/svg10.dtd">
<svg version="1.0" xmlns="http://www.w3.org/2000/svg"
 width="512.000000pt" height="512.000000pt" viewBox="0 0 512.000000 512.000000"
 preserveAspectRatio="xMidYMid meet">
<metadata>
Created by potrace 1.14, written by Peter Selinger 2001-2017
</metadata>
<g transform="translate(0.000000,512.000000) scale(0.100000,-0.100000)"
fill="#000000" stroke="none">
<path d="M366 3980 c-105 -18 -230 -109 -278 -203 -49 -97 -48 -59 -48 -1402
0 -1108 2 -1268 16 -1320 29 -115 100 -201 209 -258 l60 -32 1090 -5 c600 -3
1603 -3 2230 0 l1140 5 49 25 c116 59 203 175 226 301 7 36 9 497 8 1325 l-3
1269 -32 66 c-61 123 -174 207 -309 229 -72 12 -4287 11 -4358 0z m1374 -370
c22 -11 52 -39 67 -62 l28 -42 3 -744 2 -744 -77 82 c-117 125 -263 218 -394
251 -27 7 -49 16 -49 21 0 4 12 14 28 22 81 42 142 166 142 287 0 45 2 48 35
59 96 32 112 178 24 228 -29 17 -29 17 -29 114 0 130 -22 189 -99 267 -86 89
-136 104 -326 99 -127 -3 -157 -7 -196 -25 -66 -30 -124 -86 -156 -151 -25
-50 -28 -70 -31 -172 -4 -115 -4 -116 -32 -132 -87 -50 -74 -188 21 -226 35
-14 39 -19 39 -51 0 -57 28 -159 56 -207 30 -50 76 -92 118 -107 28 -10 26
-11 -61 -41 -157 -55 -316 -170 -409 -297 -22 -30 -40 -47 -46 -41 -5 5 -7
323 -6 753 3 814 0 772 61 830 50 49 45 48 665 49 565 0 584 -1 622 -20z
m2759 -1986 l31 -26 0 -210 0 -210 -34 -34 -34 -34 -1106 2 -1106 3 -27 28
-28 27 -3 183 c-4 211 0 241 35 273 l26 24 1108 0 1107 0 31 -26z"/>
<path d="M2408 1456 c-29 -21 -40 -64 -27 -103 22 -67 -42 -64 988 -61 l933 3
24 28 c32 38 32 90 -1 122 l-24 25 -938 0 c-754 -1 -941 -3 -955 -14z"/>
</g>
</svg>
